<svg width="32" height="32" viewBox="0 0 32 32" fill="none" xmlns="http://www.w3.org/2000/svg">
  <rect width="32" height="32" rx="4" fill="#107C10"/>
  <path d="M8.632 22V10.6H14.312C15.3973 10.6 16.268 10.7813 16.924 11.144C17.5893 11.5067 18.0667 11.9933 18.356 12.604C18.6453 13.2147 18.79 13.9067 18.79 14.68C18.79 15.4533 18.6453 16.1453 18.356 16.756C18.0667 17.3667 17.5893 17.8533 16.924 18.216C16.268 18.5787 15.3973 18.76 14.312 18.76H10.692V22H8.632ZM10.692 17.004H14.046C14.8193 17.004 15.3787 16.84 15.724 16.512C16.0693 16.184 16.242 15.6993 16.242 15.056V14.304C16.242 13.6607 16.0693 13.176 15.724 12.848C15.3787 12.52 14.8193 12.356 14.046 12.356H10.692V17.004ZM20.3495 22V10.6H26.0295C27.1149 10.6 27.9855 10.7813 28.6415 11.144C29.3069 11.5067 29.7842 11.9933 30.0735 12.604C30.3629 13.2147 30.5075 13.9067 30.5075 14.68C30.5075 15.4533 30.3629 16.1453 30.0735 16.756C29.7842 17.3667 29.3069 17.8533 28.6415 18.216C27.9855 18.5787 27.1149 18.76 26.0295 18.76H22.4095V22H20.3495ZM22.4095 17.004H25.7635C26.5369 17.004 27.0962 16.84 27.4415 16.512C27.7869 16.184 27.9595 15.6993 27.9595 15.056V14.304C27.9595 13.6607 27.7869 13.176 27.4415 12.848C27.0962 12.52 26.5369 12.356 25.7635 12.356H22.4095V17.004Z" fill="white"/>
</svg>
